<svg viewBox="0 0 64 64" xmlns="http://www.w3.org/2000/svg"><g clip-path="url(#a)"><path d="M.223 64h64V0H.443l-.22 64Z" fill="#97D4CE"/><path d="M5.753 54.83h7.12a3 3 0 0 0 0-6h-2.82l4.33-12.78a3 3 0 0 0-5.63-2.07l-5.81 16.85a3 3 0 0 0 2.81 4Z" fill="#04386D"/><path d="M8.334 64h22.19V35.62a5 5 0 0 0-2.45-4.31l-4.77-2.55h-5.69l-6.35 2.67a5 5 0 0 0-2.93 4.55V64Z" fill="#04386D"/><path d="M21.253 23.25a6.75 6.75 0 1 0 0-13.5 6.75 6.75 0 0 0 0 13.5Z" fill="#673332"/><path d="M20.523 31.44a2.94 2.94 0 0 1-2.94-2.94V16.36h5.88V28.5a2.94 2.94 0 0 1-2.94 2.94Z" fill="#FFB57C"/><path d="m21.163 53.36 2.57.15a.48.48 0 0 0 .48-.34l1.06-3.56h-.27a1.54 1.54 0 0 0-1.23.77l-.4 1.49h-1.12l-1.09 1.49Z" fill="#B5896B"/><path d="m25.143 53.3 1.55-4.17h-.31a1.781 1.781 0 0 0-1.5.81l-.58 1.7-1.24-.23a1.088 1.088 0 0 1-.74-.53l-.14-.23-.83-1.43-3.47.89v3.6l6.81-.08a.5.5 0 0 0 .45-.33Z" fill="#FFB57C"/><path d="m18.993 51.55-.13-.44a1.14 1.14 0 0 1 .78-1.42l4.45-1.27.1.3a1.3 1.3 0 0 1-.88 1.61l-4.32 1.22ZM20.903 26.16l3.74-1.07a3.11 3.11 0 0 0 2.26-2.92l.18-7.62-6.22-1-4 2.45 4.04 10.16Z" fill="#FFB57C"/><path d="M17.943 18.6a2.48 2.48 0 1 0 0-4.96 2.48 2.48 0 0 0 0 4.96Z" fill="#673332"/><path d="M23.875 16.823c2.402-.332 4.133-2.163 3.866-4.089-.267-1.926-2.43-3.217-4.832-2.884-2.402.333-4.132 2.164-3.865 4.09.267 1.925 2.43 3.216 4.831 2.883Z" fill="#673332"/><path d="M18.263 20a1.53 1.53 0 1 0 0-3.06 1.53 1.53 0 0 0 0 3.06Z" fill="#FFB57C"/><path d="M18.473 20.91a1.03 1.03 0 1 0 0-2.06 1.03 1.03 0 0 0 0 2.06Z" fill="#fff"/><path d="M8.334 64v-9.06h8.12s-8.12 8.99-8.12 9.06Z" fill="#01263F"/><path d="M58.923 54.83h-7.12a3 3 0 0 1 0-6h2.82l-4.33-12.78a3 3 0 1 1 5.63-2.07l5.83 16.85a3.002 3.002 0 0 1-2.81 4h-.02Z" fill="#fff"/><path d="M56.333 64h-22.18V35.62a5 5 0 0 1 2.45-4.31l4.32-2.55h6.62l5.87 2.67a5 5 0 0 1 2.92 4.55V64Z" fill="#fff"/><path d="M46.153 16.33h-7.11a3.5 3.5 0 0 1-3.5-3.5V9.35h10.61v7-.02Z" fill="#333"/><path d="m37.163 22.16.41-8.64a2.08 2.08 0 0 1 2.31-1.85h5.11l1.75 3.9-.68 1.43h.69v11.35a2.9 2.9 0 0 1-5.8 0v-3.82l-1.82-.1a2.08 2.08 0 0 1-1.97-2.27Z" fill="#DD9D71"/><path d="M47.553 31.59h-7.38v-4.07a1.57 1.57 0 0 1 1.57-1.57h5.81v5.64Z" fill="#fff"/><path d="M42.654 10.83a4.29 4.29 0 0 1 3.25-1.49 4.34 4.34 0 0 1 4.33 4.2v6.37a3.35 3.35 0 0 1-3.35 3.35h-.22v-5.31a4.903 4.903 0 0 1-.77.08 4.32 4.32 0 0 1-3.89-2.46h-.21a4.75 4.75 0 0 1-4.74-4.74h5.6Z" fill="#333"/><path d="M45.443 18.74a1.42 1.42 0 1 0 0-2.84 1.42 1.42 0 0 0 0 2.84Z" fill="#DD9D71"/><path d="M51.133 39.73h-7.16a2.79 2.79 0 0 1 2.79-2.79h4.37v2.79Z" fill="#00837A"/><path d="M46.473 48.29v1.49h-4a1.2 1.2 0 0 1-1.2-1.2v-.29H46.473Z" fill="#BC835C"/><path d="M47.353 48.29h-3l-2.6 3.3h-1.78a2.62 2.62 0 0 0-2.34 1.43l-.34.69h6.39a2.09 2.09 0 0 0 1.56-.7l.63-.7a1.548 1.548 0 0 1 1.17-.53h.31v-3.49Z" fill="#DD9D71"/><path opacity=".2" d="M56.353 64v-9.06h-8.12s8.12 8.99 8.12 9.06Z" fill="#009787"/></g><defs><clipPath id="a"><path fill="#fff" transform="translate(.223)" d="M0 0h64.22v64H0z"/></clipPath></defs></svg>
