<svg viewBox="0 0 64 64" xmlns="http://www.w3.org/2000/svg"><path d="M64 63.97H0V0h63.78L64 63.97Z" fill="#EF7A3E"/><path d="M5.25 54.834h7.12a3 3 0 0 0 2.121-5.119 3 3 0 0 0-2.121-.878H9.54l4.33-12.774a2.997 2.997 0 0 0-1.803-3.785 3.001 3.001 0 0 0-3.827 1.716l-5.8 16.842a2.997 2.997 0 0 0 2.81 3.998Z" fill="#04386D"/><path d="M7.83 64h22.19V35.633a4.996 4.996 0 0 0-2.46-4.308l-4.76-2.548h-5.69l-6.35 2.668a5 5 0 0 0-2.93 4.548V64Z" fill="#04386D"/><path d="M20.74 23.259c3.728 0 6.75-3.02 6.75-6.747a6.748 6.748 0 0 0-6.75-6.747 6.748 6.748 0 0 0-6.75 6.747 6.748 6.748 0 0 0 6.75 6.747Z" fill="#673332"/><path d="M20.02 31.455a2.94 2.94 0 0 1-2.94-2.938V16.382h5.89v12.135a2.936 2.936 0 0 1-2.95 2.938Z" fill="#FFB57C"/><path d="m20.66 53.365 2.57.15a.48.48 0 0 0 .48-.34l1.06-3.558h-.27a1.541 1.541 0 0 0-1.23.77l-.4 1.489h-1.13l-1.08 1.489Z" fill="#B5896B"/><path d="m24.64 53.305 1.55-4.168h-.31a1.78 1.78 0 0 0-1.5.81l-.58 1.699-1.24-.23a1.11 1.11 0 0 1-.75-.53l-.13-.23-.83-1.43-3.47.89v3.599l6.81-.08a.5.5 0 0 0 .45-.33Z" fill="#FFB57C"/><path d="m18.54 51.556-.13-.44a1.139 1.139 0 0 1 .78-1.42l4.45-1.269.09.3a1.28 1.28 0 0 1-.87 1.61l-4.32 1.219ZM20.4 26.178l3.74-1.07a3.12 3.12 0 0 0 2.26-2.919l.18-7.616-6.22-1-4 2.45 4.04 10.155Z" fill="#FFB57C"/><path d="M17.43 18.611a2.48 2.48 0 1 0 .001-4.959 2.48 2.48 0 0 0-.001 4.96Z" fill="#673332"/><path d="M23.368 16.84c2.402-.332 4.132-2.162 3.865-4.086-.267-1.925-2.43-3.216-4.831-2.883-2.402.332-4.132 2.162-3.866 4.087.267 1.925 2.43 3.216 4.832 2.883Z" fill="#673332"/><path d="M17.76 20.01a1.53 1.53 0 1 0 0-3.059 1.53 1.53 0 0 0 0 3.06Z" fill="#FFB57C"/><path d="M17.97 20.921a1.03 1.03 0 1 0 0-2.06 1.03 1.03 0 0 0 0 2.06Z" fill="#fff"/><path d="M7.83 64v-9.056h8.12S7.83 63.93 7.83 64Z" fill="#01263F"/><path d="M58.98 54.834h-7.12a3.001 3.001 0 0 1-3-2.998 2.998 2.998 0 0 1 3-2.999h2.82l-4.33-12.774a2.997 2.997 0 0 1 2.93-4.093 3 3 0 0 1 2.7 2.024l5.81 16.802a2.997 2.997 0 0 1-2.81 3.998v.04Z" fill="#356977"/><path d="M56.4 64H34.21V35.633a4.996 4.996 0 0 1 2.46-4.308l4.31-2.548h6.63l5.86 2.668a5 5 0 0 1 2.93 4.548V64Z" fill="#356977"/><path d="M37.18 23.11a5.686 5.686 0 0 0 5.55 5.806h8.16V16.973A6.995 6.995 0 0 0 43.945 9.1a7.003 7.003 0 0 0-6.69 4.938A6.993 6.993 0 0 0 37 16.972l.18 6.137Z" fill="#fff"/><path d="M42 22.18h5.3v6.097a2.608 2.608 0 0 1-2.61 2.609h-.1a2.61 2.61 0 0 1-2.59-2.61V22.18Z" fill="#FFB57C"/><path d="m37.85 16.282.52 7.067a1.928 1.928 0 0 0 1.2 1.68l2.47.799 2.88-.18 1.19-9.995-8.26.63Z" fill="#FFB57C"/><path d="M47.39 15.123a5.088 5.088 0 0 0-4.84-3.808 5.481 5.481 0 0 0-5.28 4.288c-.1.53-.26 1 .26 1h6.91v10.144c0 2.67 2.07 2.15 4.62 2.15h1.87V16.401l-3.54-1.279Z" fill="#fff"/><path d="m46.85 21-1.64-.2c.22-1.819.36-6.997-1.63-8.996a2.819 2.819 0 0 0-2-.83.83.83 0 0 1-.8-.719.83.83 0 0 1 .84-.93 4.481 4.481 0 0 1 3.11 1.31C47.72 13.634 46.89 20.7 46.85 21ZM37.79 28.077l-.64-1.74 4.07-1.489 3.45-4.198 1.43 1.17-3.76 4.598-4.55 1.659Z" fill="#3D7487"/><path d="M45.82 24.099a3.69 3.69 0 1 0-3.69-3.689 3.69 3.69 0 0 0 3.69 3.689ZM40.28 27.847l-2.65.85a1.49 1.49 0 0 1-1.87-1 1.539 1.539 0 0 1 .95-1.939l2.65-.85.92 2.939Z" fill="#10344C"/><path d="M49.94 35.973h-5.98v2.789h5.98v-2.789Z" fill="#fff"/><path d="M49.94 35.973h-1.92v2.789h1.92v-2.789Z" fill="#B1C1C4"/><path d="M47.6 48.907v1.49h-4a1.198 1.198 0 0 1-1.2-1.2v-.29H47.6Z" fill="#EA9B65"/><path d="M48.48 48.917h-3l-2.56 3.319h-1.78a2.6 2.6 0 0 0-2.33 1.429l-.35.69h6.39a2.121 2.121 0 0 0 1.56-.7l.63-.71a1.58 1.58 0 0 1 1.17-.52h.31l-.04-3.508Z" fill="#FFB57C"/><path d="M56.47 64v-9.056h-8.11S56.47 63.93 56.47 64Z" fill="#255560"/></svg>
