<svg viewBox="0 0 64 64" xmlns="http://www.w3.org/2000/svg"><g clip-path="url(#a)"><path d="M64.666 63.97h-64V0h63.781l.22 63.97Z" fill="#2A9F79"/><path d="M6.486 54.834h7.11a3 3 0 0 0 3-2.998 2.998 2.998 0 0 0-3-2.999h-2.81l4.33-12.774a2.998 2.998 0 0 0-4.066-3.707 3 3 0 0 0-1.564 1.638l-5.82 16.842a2.997 2.997 0 0 0 2.82 3.998Z" fill="#fff"/><path d="M9.067 64h22.18V35.633a4.996 4.996 0 0 0-2.45-4.308l-4.31-2.549h-6.6l-5.86 2.669a5 5 0 0 0-2.93 4.548L9.067 64Z" fill="#fff"/><path d="M19.247 9.375h10.6v3.479a3.498 3.498 0 0 1-3.5 3.498h-7.1V9.355v.02Z" fill="#333"/><path d="m28.247 22.18-.41-8.636a2.087 2.087 0 0 0-2.32-1.85h-5.11l-1.75 3.899.68 1.429h-.67v11.345a2.899 2.899 0 0 0 4.884 1.938c.538-.507.862-1.2.906-1.938v-3.819l1.82-.1a2.093 2.093 0 0 0 1.876-1.441c.086-.267.118-.548.094-.828Z" fill="#DD9D71"/><path d="M17.846 25.988h5.82a1.57 1.57 0 0 1 1.57 1.57v4.067h-7.39v-5.637Z" fill="#fff"/><path d="M22.756 10.855a4.33 4.33 0 0 0-7.59 2.709v6.367a3.348 3.348 0 0 0 3.35 3.348h.23v-5.307c.251.047.505.073.76.08a4.352 4.352 0 0 0 3.9-2.46h.21a4.741 4.741 0 0 0 4.74-4.737h-5.6Z" fill="#333"/><path d="M19.957 18.761a1.42 1.42 0 1 0 0-2.839 1.42 1.42 0 0 0 0 2.84Z" fill="#DD9D71"/><path d="M14.266 36.982h4.4a2.79 2.79 0 0 1 2.79 2.79h-7.19v-2.79Z" fill="#00837A"/><path d="m21.716 53.365 2.57.15a.48.48 0 0 0 .48-.34l1.06-3.558h-.27a1.52 1.52 0 0 0-1.23.77l-.4 1.489h-1.13l-1.08 1.489Z" fill="#BC835C"/><path d="m25.696 53.305 1.55-4.168h-.31a1.761 1.761 0 0 0-1.5.81l-.58 1.699-1.24-.23a1.08 1.08 0 0 1-.75-.53l-.13-.23-.83-1.429-3.47.89v3.598l6.81-.08a.5.5 0 0 0 .45-.33Z" fill="#DD9D71"/><path d="m19.547 51.556-.13-.44a1.14 1.14 0 0 1 .78-1.42l4.45-1.269.09.3a1.28 1.28 0 0 1-.87 1.61l-4.32 1.219Z" fill="#DD9D71"/><path opacity=".2" d="M9.037 64v-9.056h8.12S9.037 63.93 9.037 64Z" fill="#009787"/><path d="M59.886 54.834h-7.12a3 3 0 0 1-3-2.998 2.998 2.998 0 0 1 3-2.999h2.82l-4.33-12.774a2.997 2.997 0 0 1 2.93-4.093 3 3 0 0 1 2.7 2.024l5.82 16.802a2.998 2.998 0 0 1-.36 2.749 3 3 0 0 1-2.46 1.29Z" fill="#356977"/><path d="M57.267 64h-22.19V35.633a4.996 4.996 0 0 1 2.46-4.308l4.31-2.549h6.63l5.86 2.669a5 5 0 0 1 2.93 4.548V64Z" fill="#356977"/><path d="M38.056 23.11a5.676 5.676 0 0 0 5.54 5.806h8.16V16.972a6.993 6.993 0 0 0-4.065-7.252 7.003 7.003 0 0 0-9.57 4.318 6.995 6.995 0 0 0-.255 2.934l.19 6.137Z" fill="#fff"/><path d="M42.846 22.18h5.32v6.097a2.608 2.608 0 0 1-2.61 2.608h-.1a2.61 2.61 0 0 1-2.61-2.608v-6.098Z" fill="#FFB57C"/><path d="m38.716 16.282.52 7.067a1.929 1.929 0 0 0 1.2 1.68l2.47.799 2.88-.18 1.19-9.995-8.26.63Z" fill="#FFB57C"/><path d="M48.256 15.123a5.087 5.087 0 0 0-4.83-3.808 5.481 5.481 0 0 0-5.29 4.287c-.1.53-.25 1 .26 1h6.91v10.145c0 2.669 2.07 2.15 4.62 2.15h1.87V16.401l-3.54-1.28Z" fill="#fff"/><path d="m47.726 21-1.65-.2c.23-1.819.37-6.997-1.63-8.995a2.82 2.82 0 0 0-2-.83.82.82 0 0 1-.79-.72.82.82 0 0 1 .84-.93 4.481 4.481 0 0 1 3.1 1.31c3 2.999 2.16 10.065 2.13 10.365ZM38.656 28.077l-.64-1.74 4.08-1.489 3.44-4.198 1.44 1.17-3.77 4.598-4.55 1.659Z" fill="#3D7487"/><path d="M46.687 24.099a3.69 3.69 0 1 0-3.69-3.689 3.69 3.69 0 0 0 3.69 3.689ZM41.146 27.847l-2.65.85a1.47 1.47 0 0 1-1.86-1 1.538 1.538 0 0 1 .94-1.94l2.65-.849.92 2.939Z" fill="#10344C"/><path d="M50.807 35.973h-5.98v2.789h5.98v-2.789Z" fill="#fff"/><path d="M50.806 35.973h-1.92v2.789h1.92v-2.789Z" fill="#B1C1C4"/><path d="M48.466 48.907v1.49h-4a1.2 1.2 0 0 1-1.2-1.2v-.29H48.466Z" fill="#EA9B65"/><path d="M49.347 48.917h-3l-2.56 3.318h-1.79a2.6 2.6 0 0 0-2.33 1.43l-.35.69h6.39a2.11 2.11 0 0 0 1.56-.7l.63-.71a1.59 1.59 0 0 1 1.17-.52h.31l-.03-3.508Z" fill="#FFB57C"/><path d="M57.346 64v-9.056h-8.12s8.12 8.986 8.12 9.056Z" fill="#255560"/></g><defs><clipPath id="a"><rect x=".667" width="64" height="64" rx="8" fill="#fff"/></clipPath></defs></svg>
