<svg viewBox="0 0 64 64" xmlns="http://www.w3.org/2000/svg"><g clip-path="url(#a)"><path d="M64.834 0h-64v64h64V0Z" fill="#A698D6"/><path d="M21.544 10.24h25.85a1.94 1.94 0 0 1 1.94 1.94v36.38h-27.79V10.24Z" fill="#5C5C93"/><path d="M18.273 15.44h25.85v36.39a1.94 1.94 0 0 1-1.94 1.94h-25.84v-36.4a1.94 1.94 0 0 1 1.93-1.93Z" fill="#fff"/><path d="M38.753 21.35h-17v5.34h17v-5.34Z" fill="#8080BA"/><path d="M21.753 21.35h6.24a2.67 2.67 0 0 1 2.67 2.65 2.67 2.67 0 0 1-2.67 2.67h-6.24v-5.32ZM35.944 21.35h.89a1.94 1.94 0 0 1 1.94 1.94v3.4h-.94a1.94 1.94 0 0 1-1.94-1.94v-3.4h.05Z" fill="#6868A5"/><path d="M27.093 29.07h-5.34v5.34h5.34v-5.34ZM38.764 35.8h-10.31v5.34h10.31V35.8Z" fill="#8080BA"/><path d="M28.454 35.8h2.23a2.67 2.67 0 0 1 0 5.34h-2.23V35.8Z" fill="#6868A5"/><path d="M27.093 35.81h-5.34v1.44h5.34v-1.44ZM27.093 38.03h-5.34v1.44h5.34v-1.44ZM38.754 28.93h-10.32v1.47h10.32v-1.47ZM33.784 31.2h-5.35v1.47h5.35V31.2ZM38.754 42.52h-10.32v1.47h10.32v-1.47ZM38.754 44.79h-10.32v1.47h10.32v-1.47ZM38.753 46.99h-4.35v1.47h4.35v-1.47ZM27.093 40.25h-5.34v1.44h5.34v-1.44ZM27.093 42.47h-5.34v1.44h5.34v-1.44ZM27.093 44.69h-5.34v1.44h5.34v-1.44ZM27.093 46.91h-5.34v1.44h5.34v-1.44Z" fill="#8080BA"/></g><defs><clipPath id="a"><path fill="#fff" transform="translate(.833)" d="M0 0h64v64H0z"/></clipPath></defs></svg>
