<svg viewBox="0 0 64 64" xmlns="http://www.w3.org/2000/svg"><g clip-path="url(#a)"><path d="M64.5 0H.5v64h64V0Z" fill="#CB6699"/><path d="m35.448 32.255-7.89-1.642.598-2.879a2.458 2.458 0 0 1 2.91-1.907l9.497 1.977-.266 1.273a4.1 4.1 0 0 1-4.849 3.178Z" fill="#59361E"/><path d="M46.53 36.58c1.6-1.6 3.65-3.56 3.65-3.56l-9.5-9.86-4 3.74-1.91-.25a2.74 2.74 0 0 0-2.63.64l-5.49 5.41 13.28 12.2s5.1-3.25 5.3-5.07" fill="#F96"/><path d="m45.69 39.01-5.29-5.36-7.73-7a3.35 3.35 0 0 0-3.09-.76l-1.57.4-2.88-2.92-9.51 9.37 2.88 2.92-.36 2a3.34 3.34 0 0 0 .87 2.91l7 7.41 3.42 3.47a1.67 1.67 0 0 0 2.38 0l1.3-1.28a1.72 1.72 0 0 0 .5-1.27l.93 1a1.69 1.69 0 0 0 2.38 0l1.3-1.29a1.66 1.66 0 0 0 .06-2.32l1.18 1.19a1.69 1.69 0 0 0 2.38 0l1.3-1.28a1.7 1.7 0 0 0 0-2.39l-6.47-6.57 5.25 5.33a1.678 1.678 0 0 0 2.38 0l1.3-1.28a1.69 1.69 0 0 0 .09-2.28Zm-17.16 6.55.87-.87-.87.87Z" fill="#59361E"/><path d="m25.74 32.127 7.602-6.026a2.46 2.46 0 0 1 3.456.4l1.826 2.304-6.317 5.007a4.1 4.1 0 0 1-5.76-.667l-.807-1.019ZM35.53 49.67a3.67 3.67 0 0 0-2.09-.88l.46-.54-.92-.8a3.65 3.65 0 0 0-3.06-.83l1.22-1.39-.93-.8a3.642 3.642 0 0 0-2.68-.9c-.12 0-.24 0-.35.06l.59-.69-.92-.8a3.7 3.7 0 0 0-5.21.37l-1.4 1.61a2.099 2.099 0 0 0 .21 3l.33.29a2.381 2.381 0 0 0 1.75.57 2 2 0 0 0 .59-.13 2 2 0 0 0 .71 1.59l.33.29a2.372 2.372 0 0 0 1.73.58h.08a2.09 2.09 0 0 0 .63 2.17l.33.29a2.371 2.371 0 0 0 1.74.57 2.42 2.42 0 0 0 1.4-.6l.77.68a2.41 2.41 0 0 0 1.73.58 2.29 2.29 0 0 0 1.61-.81l2.27-2.61-.92-.87Z" fill="#F96"/><path d="M34.81 31.9a1.91 1.91 0 0 1 2.54.15l7.4 6 1.42-1.7-7.94-7.54-3 .2-1.18 1 .76 1.89Z" fill="#F96"/><path d="m16.61 15.27 2.82 2.74L8.95 28.65a5.05 5.05 0 0 1-.2-7l6.28-6.37a1.099 1.099 0 0 1 1.58-.01Z" fill="#D8A3C4"/><path d="m25.978 22.499-5.657-5.572L8.131 29.3l5.657 5.572L25.978 22.5Z" fill="#F7BFDF"/><path d="M13.33 31.16a1.58 1.58 0 1 0 0-3.16 1.58 1.58 0 0 0 0 3.16Z" fill="#fff"/><path d="m48.9 15.27-2.82 2.74 10.45 10.64a5.05 5.05 0 0 0 .19-7l-6.28-6.37a1.082 1.082 0 0 0-1.54-.01Z" fill="#3B1583"/><path d="m51.817 34.775 5.657-5.572-12.19-12.374-5.657 5.572 12.19 12.374Z" fill="#53359E"/><path d="M52.18 31.16a1.58 1.58 0 1 0 0-3.16 1.58 1.58 0 0 0 0 3.16Z" fill="#fff"/></g><defs><clipPath id="a"><path fill="#fff" transform="translate(.5)" d="M0 0h64v64H0z"/></clipPath></defs></svg>
