<svg viewBox="0 0 64 64" xmlns="http://www.w3.org/2000/svg"><g clip-path="url(#a)"><g clip-path="url(#b)"><path d="M64.167 0h-64v64h64V0Z" fill="#EA7C5D"/><path d="M34.467 47.3h-4.6a3.67 3.67 0 0 0-3.66 3.67v.4h11.92v-.4a3.67 3.67 0 0 0-3.66-3.67Z" fill="#8B2A0D"/><path d="m12.237 20.67.16.81a4.6 4.6 0 0 0 5.42 3.55l29.81-6.21a4.58 4.58 0 0 0 3.54-5.42l-.16-.81-38.77 8.08Z" fill="#721D09"/><path d="M33.277 47.3h-3.43a3.67 3.67 0 0 0-3.66 3.67v.4h7.09V47.3Z" fill="#AF3F25"/><path d="M32.317 53.51a2.1 2.1 0 0 1-2.1-2.1V15.35a2.1 2.1 0 0 1 4.2 0v36.06a2.1 2.1 0 0 1-2.1 2.1Z" fill="#8B2A0D"/><path d="M32.317 53.51a2.1 2.1 0 0 1-2.1-2.1V15.35a2.1 2.1 0 0 1 2.1-2.1v40.26Z" fill="#AF3F25"/><path d="M39.737 54.87h-15.33a2.1 2.1 0 0 1 0-4.2h15.33a2.1 2.1 0 1 1 0 4.2Z" fill="#721D09"/><path d="m18.207 22.14 3.71 4.72 3.71 4.73h-14.84l3.71-4.73 3.71-4.72Z" fill="#FFCFC5"/><path d="M10.787 32.29a7.42 7.42 0 1 0 14.84 0v-.78h-14.84v.78Z" fill="#AF3F25"/><path d="M18.147 31.51v8.37h.06a7.53 7.53 0 0 0 7.42-7.62v-.75h-7.48Z" fill="#8B2A0D"/><path d="m46.177 15.53 3.71 4.72 3.71 4.73h-14.84l3.71-4.73 3.71-4.72Z" fill="#FFCFC5"/><path d="M38.767 25.68a7.42 7.42 0 1 0 14.84 0v-.75h-14.84v.75Z" fill="#AF3F25"/><path d="M46.127 24.93v8.37h.06a7.53 7.53 0 0 0 7.42-7.63v-.75l-7.48.01Z" fill="#8B2A0D"/></g></g><defs><clipPath id="a"><rect x=".167" width="64" height="64" rx="8" fill="#fff"/></clipPath><clipPath id="b"><path fill="#fff" transform="translate(.167)" d="M0 0h64v64H0z"/></clipPath></defs></svg>
